<?xml version="1.0" standalone="no"?>
<!DOCTYPE svg PUBLIC "-//W3C//DTD SVG 20010904//EN"
 "http://www.w3.org/TR/2001/REC-SVG-20010904/DTD/svg10.dtd">
<svg version="1.0" xmlns="http://www.w3.org/2000/svg"
 width="300.000000pt" height="274.000000pt" viewBox="0 0 300.000000 274.000000"
 preserveAspectRatio="xMidYMid meet">
<metadata>
Created by potrace 1.10, written by Peter Selinger 2001-2011
</metadata>
<g transform="translate(0.000000,274.000000) scale(0.100000,-0.100000)"
fill="#000000" stroke="none">
<path d="M1400 2581 c-131 -43 -237 -161 -275 -306 -20 -77 -19 -216 1 -286
66 -226 262 -359 448 -305 71 21 118 50 172 107 88 94 127 198 126 339 0 114
-23 198 -80 286 -73 112 -162 166 -287 170 -44 2 -91 0 -105 -5z"/>
<path d="M710 1810 c-284 -43 -455 -302 -347 -523 74 -150 233 -239 427 -239
195 0 353 89 428 242 23 47 27 68 27 140 0 72 -4 93 -27 140 -32 64 -92 130
-157 172 -90 56 -237 85 -351 68z"/>
<path d="M2109 1810 c-154 -24 -287 -118 -346 -245 -58 -125 -29 -272 75 -378
94 -95 205 -140 352 -139 200 0 361 93 433 249 31 68 31 198 0 266 -33 71 -76
121 -144 166 -102 68 -246 99 -370 81z"/>
<path d="M1415 1601 c-50 -22 -91 -69 -105 -119 -12 -46 -12 -58 0 -104 30
-105 149 -164 248 -123 160 67 160 283 0 350 -49 20 -94 19 -143 -4z"/>
<path d="M1403 1176 c-179 -58 -293 -232 -293 -446 0 -193 85 -350 231 -426
48 -26 64 -29 149 -29 84 0 101 3 146 27 73 38 112 74 156 142 104 162 110
386 13 551 -84 142 -268 225 -402 181z"/>
</g>
</svg>
